<?xml version="1.0" encoding="UTF-8" standalone="no"?>
<!DOCTYPE svg PUBLIC "-//W3C//DTD SVG 1.1//EN"
 "http://www.w3.org/Graphics/SVG/1.1/DTD/svg11.dtd">
<!-- Generated by graphviz version 5.0.0 (20220707.1540)
 -->
<!-- Title: UmlClassDiagram Pages: 1 -->
<svg width="841pt" height="540pt"
 viewBox="0.00 0.00 840.96 539.60" xmlns="http://www.w3.org/2000/svg" xmlns:xlink="http://www.w3.org/1999/xlink">
<g id="graph0" class="graph" transform="scale(1 1) rotate(0) translate(4 535.6)">
<title>UmlClassDiagram</title>
<polygon fill="white" stroke="transparent" points="-4,4 -4,-535.6 836.96,-535.6 836.96,4 -4,4"/>
<!-- 1 -->
<g id="node1" class="node">
<title>1</title>
<polygon fill="#f2f2f2" stroke="black" points="341.41,-0.5 341.41,-184.5 491.55,-184.5 491.55,-0.5 341.41,-0.5"/>
<text text-anchor="middle" x="416.48" y="-167.9" font-family="Times,serif" font-size="14.00">&lt;&lt;Struct&gt;&gt;</text>
<text text-anchor="middle" x="416.48" y="-151.1" font-family="Times,serif" font-size="14.00">MarketToken</text>
<text text-anchor="middle" x="416.48" y="-134.3" font-family="Times,serif" font-size="14.00">contracts/KBMarket.sol</text>
<polyline fill="none" stroke="black" points="341.41,-126.1 491.55,-126.1 "/>
<text text-anchor="start" x="349.41" y="-109.5" font-family="Times,serif" font-size="14.00">itemId: uint</text>
<text text-anchor="start" x="349.41" y="-92.7" font-family="Times,serif" font-size="14.00">nftContract: address</text>
<text text-anchor="start" x="349.41" y="-75.9" font-family="Times,serif" font-size="14.00">tokenId: uint256</text>
<text text-anchor="start" x="349.41" y="-59.1" font-family="Times,serif" font-size="14.00">seller: address</text>
<text text-anchor="start" x="349.41" y="-42.3" font-family="Times,serif" font-size="14.00">owner: address</text>
<text text-anchor="start" x="349.41" y="-25.5" font-family="Times,serif" font-size="14.00">price: uint256</text>
<text text-anchor="start" x="349.41" y="-8.7" font-family="Times,serif" font-size="14.00">sold: bool</text>
</g>
<!-- 0 -->
<g id="node2" class="node">
<title>0</title>
<polygon fill="#f2f2f2" stroke="black" points="0,-221.5 0,-531.1 832.96,-531.1 832.96,-221.5 0,-221.5"/>
<text text-anchor="middle" x="416.48" y="-514.5" font-family="Times,serif" font-size="14.00">KBMarket</text>
<text text-anchor="middle" x="416.48" y="-497.7" font-family="Times,serif" font-size="14.00">contracts/KBMarket.sol</text>
<polyline fill="none" stroke="black" points="0,-489.5 832.96,-489.5 "/>
<text text-anchor="start" x="8" y="-472.9" font-family="Times,serif" font-size="14.00">Private:</text>
<text text-anchor="start" x="8" y="-456.1" font-family="Times,serif" font-size="14.00"> &#160;&#160;_tokenIds: Counters.Counter</text>
<text text-anchor="start" x="8" y="-439.3" font-family="Times,serif" font-size="14.00"> &#160;&#160;_tokensSold: Counters.Counter</text>
<text text-anchor="start" x="8" y="-422.5" font-family="Times,serif" font-size="14.00"> &#160;&#160;idToMarketToken: mapping(uint256=&gt;MarketToken)</text>
<text text-anchor="start" x="8" y="-405.7" font-family="Times,serif" font-size="14.00">Public:</text>
<text text-anchor="start" x="8" y="-388.9" font-family="Times,serif" font-size="14.00"> &#160;&#160;owner: address</text>
<text text-anchor="start" x="8" y="-372.1" font-family="Times,serif" font-size="14.00"> &#160;&#160;listingPrice: uint256</text>
<polyline fill="none" stroke="black" points="0,-363.9 832.96,-363.9 "/>
<text text-anchor="start" x="8" y="-347.3" font-family="Times,serif" font-size="14.00">Public:</text>
<text text-anchor="start" x="8" y="-330.5" font-family="Times,serif" font-size="14.00"> &#160;&#160;&#160;&lt;&lt;payable&gt;&gt; mintMarketItem(nftContract: address, tokenId: uint, price: uint) &lt;&lt;nonReentrant&gt;&gt;</text>
<text text-anchor="start" x="8" y="-313.7" font-family="Times,serif" font-size="14.00"> &#160;&#160;&#160;&lt;&lt;payable&gt;&gt; createMarketSale(nftContract: address, itemId: uint) &lt;&lt;nonReentrant&gt;&gt;</text>
<text text-anchor="start" x="8" y="-296.9" font-family="Times,serif" font-size="14.00"> &#160;&#160;&#160;&lt;&lt;event&gt;&gt; MarketTokenMinted(itemId: uint, nftContract: address, tokenId: uint256, seller: address, owner: address, price: uint256, sold: bool)</text>
<text text-anchor="start" x="8" y="-280.1" font-family="Times,serif" font-size="14.00"> &#160;&#160;&#160;constructor()</text>
<text text-anchor="start" x="8" y="-263.3" font-family="Times,serif" font-size="14.00"> &#160;&#160;&#160;getListingPrice(): uint256</text>
<text text-anchor="start" x="8" y="-246.5" font-family="Times,serif" font-size="14.00"> &#160;&#160;&#160;fetchMarketTokens(): MarketToken[]</text>
<text text-anchor="start" x="8" y="-229.7" font-family="Times,serif" font-size="14.00"> &#160;&#160;&#160;fetchMyNFTs(): MarketToken[]</text>
</g>
<!-- 1&#45;&gt;0 -->
<g id="edge1" class="edge">
<title>1&#45;&gt;0</title>
<path fill="none" stroke="black" d="M410.12,-184.6C409.99,-192.54 409.89,-200.73 409.83,-209.03"/>
<polygon fill="black" stroke="black" points="409.83,-209.27 413.79,-215.3 409.76,-221.27 405.79,-215.25 409.83,-209.27"/>
</g>
<!-- 0&#45;&gt;1 -->
<g id="edge2" class="edge">
<title>0&#45;&gt;1</title>
<path fill="none" stroke="black" d="M423.21,-221.27C423.17,-212.29 423.1,-203.38 422.99,-194.69"/>
<polygon fill="black" stroke="black" points="426.49,-194.55 422.84,-184.6 419.49,-194.65 426.49,-194.55"/>
</g>
<!-- 2 -->
<g id="node3" class="node">
<title>2</title>
<polygon fill="#f2f2f2" stroke="black" points="509.5,-4.9 509.5,-180.1 775.46,-180.1 775.46,-4.9 509.5,-4.9"/>
<text text-anchor="middle" x="642.48" y="-163.5" font-family="Times,serif" font-size="14.00">NFT</text>
<text text-anchor="middle" x="642.48" y="-146.7" font-family="Times,serif" font-size="14.00">contracts/NFT.sol</text>
<polyline fill="none" stroke="black" points="509.5,-138.5 775.46,-138.5 "/>
<text text-anchor="start" x="517.5" y="-121.9" font-family="Times,serif" font-size="14.00">Private:</text>
<text text-anchor="start" x="517.5" y="-105.1" font-family="Times,serif" font-size="14.00"> &#160;&#160;_tokenIds: Counters.Counter</text>
<text text-anchor="start" x="517.5" y="-88.3" font-family="Times,serif" font-size="14.00">Public:</text>
<text text-anchor="start" x="517.5" y="-71.5" font-family="Times,serif" font-size="14.00"> &#160;&#160;contractAddress: address</text>
<polyline fill="none" stroke="black" points="509.5,-63.3 775.46,-63.3 "/>
<text text-anchor="start" x="517.5" y="-46.7" font-family="Times,serif" font-size="14.00">Public:</text>
<text text-anchor="start" x="517.5" y="-29.9" font-family="Times,serif" font-size="14.00"> &#160;&#160;&#160;constructor(marketplaceAddress: address)</text>
<text text-anchor="start" x="517.5" y="-13.1" font-family="Times,serif" font-size="14.00"> &#160;&#160;&#160;mintToken(tokenURI: string): uint</text>
</g>
</g>
</svg>
